<svg height="30.504" id="brands-and-logotypes" viewBox="0 0 30.504 30.504" width="30.504"
    xmlns="http://www.w3.org/2000/svg">
  <path
      d="M7.149,109.5a8.053,8.053,0,0,1,1.14-4.139v-5.142H3.147a15.26,15.26,0,0,0,0,18.563H8.289v-5.142A8.053,8.053,0,0,1,7.149,109.5Z"
      data-name="Path 4" fill="#fbbd00" id="Path_4" transform="translate(0 -94.244)" />
  <path
      d="M199.575,374.1,196,377.67l3.575,3.575a15.137,15.137,0,0,0,9.281-3.147v-5.137H203.72A8.1,8.1,0,0,1,199.575,374.1Z"
      data-name="Path 5" fill="#0f9d58" id="Path_5" transform="translate(-184.323 -350.74)" />
  <path
      d="M57.965,325.477l-5.142,5.142a15.492,15.492,0,0,0,1.32,1.5,15.153,15.153,0,0,0,10.785,4.467V329.44A8.106,8.106,0,0,1,57.965,325.477Z"
      data-name="Path 6" fill="#31aa52" id="Path_6" transform="translate(-49.676 -306.085)" />
  <path
      d="M271.252,200.82a15.386,15.386,0,0,0-.25-2.763l-.134-.733H256v7.149h7.236a8.066,8.066,0,0,1-3.091,3.315l5.137,5.137a15.489,15.489,0,0,0,1.5-1.32A15.152,15.152,0,0,0,271.252,200.82Z"
      data-name="Path 7" fill="#3c79e6" id="Path_7" transform="translate(-240.748 -185.568)" />
  <path
      d="M205.3,9.523l.632.632L210.992,5.1l-.632-.632A15.152,15.152,0,0,0,199.575,0L196,3.575l3.575,3.575A8.05,8.05,0,0,1,205.3,9.523Z"
      data-name="Path 8" fill="#cf2d48" id="Path_8" transform="translate(-184.323 0)" />
  <path
      d="M64.927,7.149V0A15.153,15.153,0,0,0,54.142,4.467a15.481,15.481,0,0,0-1.32,1.5l5.142,5.142A8.106,8.106,0,0,1,64.927,7.149Z"
      data-name="Path 9" fill="#eb4132" id="Path_9" transform="translate(-49.675 0)" />
</svg>
