<svg height="28.893" id="XMLID_834_" viewBox="0 0 14.595 28.893" width="14.595"
    xmlns="http://www.w3.org/2000/svg">
    <path
        d="M77.169,15.388h3.167V28.427a.466.466,0,0,0,.466.466h5.37a.466.466,0,0,0,.466-.466V15.45h3.641a.466.466,0,0,0,.463-.413l.553-4.8a.466.466,0,0,0-.463-.519H86.638V6.709c0-.907.488-1.367,1.452-1.367h2.742a.466.466,0,0,0,.466-.466V.469A.466.466,0,0,0,90.832,0H87.053c-.027,0-.086,0-.173,0a7.241,7.241,0,0,0-4.735,1.785A4.965,4.965,0,0,0,80.494,6.2V9.717H77.169a.466.466,0,0,0-.466.466v4.739A.466.466,0,0,0,77.169,15.388Z"
        fill="#fff" id="XMLID_835_" transform="translate(-76.703)" />
</svg>
